<svg width="405" height="77" viewBox="0 0 405 77" fill="none" xmlns="http://www.w3.org/2000/svg">
<path d="M86.2261 21.8993C86.2261 16.4062 87.8308 12.8048 91.0402 9.47191C94.2496 6.13905 101.039 2.64555 106.594 2.64555C109.824 2.64555 119.02 2.06838 122.332 2.43588C124.779 2.70734 126.322 3.44659 128.813 3.91858L126.961 24.6549C123.819 23.9249 124.938 20.878 122.332 20.0477C119.87 19.2634 113.258 20.0477 112.148 20.0477C109.247 20.0477 108.445 19.5539 108.445 21.8993C108.445 22.8251 110.79 24.7384 112.148 25.6024C113.568 26.4665 113.321 26.8151 115.296 27.8026C117.271 28.7284 120.357 31.6509 122.332 33.0088C124.307 34.3049 126.714 36.2582 128.072 38.727C129.492 41.1958 132.053 44.0349 132.053 47.2443C132.053 53.1076 132.331 59.4956 129.183 62.705C126.035 65.9144 116.006 73.0739 110.204 73.0739C104.464 73.0739 89.8676 71.068 84.3745 69.2782L89.9293 45.3927C91.6661 45.8959 91.9052 49.6377 93.8176 50.2068C99.1768 51.8015 104.683 52.6139 106.594 52.6139C109.186 52.6139 110.204 50.9166 110.204 48.633C110.204 47.4603 108.013 44.18 106.594 43.1925C103.816 41.3409 103.94 41.4026 101.965 40.4151C99.9896 39.4276 98.4466 38.0081 96.4098 36.712C94.4348 35.4158 91.3488 33.626 89.9293 31.1572C88.5714 28.6884 86.2261 25.2938 86.2261 21.8993Z" fill="#12036E"/>
<path d="M177.024 72.1481H163.415L159.804 63.0753H148.88L145.269 72.1481H132.401L142.955 14.6563H166.47L177.024 72.1481ZM158.045 52.2435L156.194 39.1899L154.157 26.1362L150.917 52.2435H158.045Z" fill="#12036E"/>
<path d="M237.483 72.1481H222.948V42.1524H222.114L214.801 72.1481H203.599L196.563 42.1524H195.637V72.1481H181.287L183.231 14.6563H204.062L209.246 45.763H209.987L214.986 14.6563H235.538L237.483 72.1481Z" fill="#12036E"/>
<path d="M286.329 72.1481H272.72L269.109 63.0753H258.185L254.574 72.1481H241.706L252.26 14.6563H275.775L286.329 72.1481ZM267.35 52.2435L264.11 31.691L263.462 26.1362L260.222 52.2435H267.35Z" fill="#12036E"/>
<path d="M330.494 32.8945C330.494 36.3508 329.969 39.2207 328.92 41.5044C327.871 43.788 326.235 45.8556 324.013 47.7072L331.697 72.1481H316.422L308.83 51.4103H304.849V72.1481H291.148V14.6563H312.626C318.798 14.6563 321.452 16.1068 324.291 19.0076C327.192 21.9084 330.494 26.5374 330.494 32.8945ZM308.83 40.3008C310.435 40.3008 313.292 40.4151 313.971 39.4893C314.65 38.5635 316.749 37.2674 316.749 34.8604C316.749 32.3916 315.576 30.2314 314.897 29.3056C314.218 28.3181 310.885 26.5282 309.342 26.5282L304.849 26.1362L304.713 40.4151L308.83 40.3008Z" fill="#12036E"/>
<path d="M353.559 72.1481H337.821L339.672 29.469H351.707L353.559 72.1481Z" fill="#12036E"/>
<path d="M404.6 72.1481H389.417L379.326 41.6895H376.734V72.1481H362.661V14.6563H378.307L389.695 44.0966H390.435V14.6563H404.6V72.1481Z" fill="#12036E"/>
<path d="M345.448 29.3059L343.838 27.863C341.967 26.1796 340.421 24.7274 339.199 23.5065C337.977 22.2855 337.005 21.1895 336.283 20.2183C335.561 19.2471 335.056 18.3545 334.769 17.5405C334.482 16.7266 334.339 15.8941 334.339 15.0432C334.339 13.3043 334.922 11.8521 336.089 10.6866C337.255 9.5212 338.709 8.93848 340.449 8.93848C341.412 8.93848 342.328 9.14197 343.199 9.54895C344.069 9.95592 344.819 10.5294 345.448 11.2694C346.078 10.5294 346.828 9.95592 347.698 9.54895C348.568 9.14197 349.485 8.93848 350.448 8.93848C352.188 8.93848 353.642 9.5212 354.808 10.6866C355.975 11.8521 356.558 13.3043 356.558 15.0432C356.558 15.8941 356.414 16.7266 356.127 17.5405C355.84 18.3545 355.336 19.2471 354.614 20.2183C353.892 21.1895 352.92 22.2855 351.697 23.5065C350.475 24.7274 348.929 26.1796 347.059 27.863L345.448 29.3059ZM345.448 26.3091C347.226 24.7182 348.689 23.3539 349.837 22.2162C350.985 21.0785 351.892 20.0888 352.558 19.2471C353.225 18.4054 353.688 17.6562 353.947 16.9994C354.206 16.3427 354.336 15.6906 354.336 15.0432C354.336 13.9332 353.966 13.0083 353.225 12.2683C352.484 11.5283 351.559 11.1584 350.448 11.1584C349.577 11.1584 348.772 11.4035 348.031 11.8937C347.291 12.3839 345.726 12.809 345.448 13.5674C345.171 12.809 343.606 12.3839 342.865 11.8937C342.125 11.4035 341.319 11.1584 340.449 11.1584C339.338 11.1584 338.412 11.5283 337.672 12.2683C336.931 13.0083 336.561 13.9332 336.561 15.0432C336.561 15.6906 336.69 16.3427 336.95 16.9994C337.209 17.6562 337.672 18.4054 338.338 19.2471C339.005 20.0888 339.912 21.0785 341.06 22.2162C342.208 23.3539 343.671 24.7182 345.448 26.3091Z" fill="#8C3A60"/>
<path d="M38.2007 76.4014C32.9162 76.4014 27.9502 75.3986 23.3024 73.3931C18.6547 71.3875 14.6118 68.6657 11.1737 65.2277C7.73564 61.7896 5.01384 57.7467 3.0083 53.0989C1.00277 48.4512 0 43.4851 0 38.2007C0 32.9162 1.00277 27.9502 3.0083 23.3024C5.01384 18.6547 7.73564 14.6118 11.1737 11.1737C14.6118 7.73564 18.6547 5.01384 23.3024 3.0083C27.9502 1.00277 32.9162 0 38.2007 0C43.4851 0 48.4512 1.00277 53.0989 3.0083C57.7467 5.01384 61.7896 7.73564 65.2277 11.1737C68.6657 14.6118 71.3875 18.6547 73.3931 23.3024C75.3986 27.9502 76.4014 32.9162 76.4014 38.2007C76.4014 43.4851 75.3986 48.4512 73.3931 53.0989C71.3875 57.7467 68.6657 61.7896 65.2277 65.2277C61.7896 68.6657 57.7467 71.3875 53.0989 73.3931C48.4512 75.3986 43.4851 76.4014 38.2007 76.4014ZM38.2007 59.211C41.0657 56.346 43.6124 53.3854 45.8408 50.3294C47.7508 47.719 49.5017 44.854 51.0934 41.7342C52.6851 38.6145 53.4809 35.5266 53.4809 32.4706C53.4809 28.2685 51.9848 24.6713 48.9924 21.6789C46 18.6865 42.4028 17.1903 38.2007 17.1903C33.9986 17.1903 30.4014 18.6865 27.409 21.6789C24.4166 24.6713 22.9204 28.2685 22.9204 32.4706C22.9204 35.5266 23.7163 38.6145 25.308 41.7342C26.8996 44.854 28.6505 47.719 30.5605 50.3294C32.7889 53.3854 35.3356 56.346 38.2007 59.211ZM38.2007 38.2007C36.609 38.2007 35.256 37.6436 34.1419 36.5294C33.0277 35.4152 32.4706 34.0623 32.4706 32.4706C32.4706 30.8789 33.0277 29.5259 34.1419 28.4118C35.256 27.2976 36.609 26.7405 38.2007 26.7405C39.7924 26.7405 41.1453 27.2976 42.2595 28.4118C43.3737 29.5259 43.9308 30.8789 43.9308 32.4706C43.9308 34.0623 43.3737 35.4152 42.2595 36.5294C41.1453 37.6436 39.7924 38.2007 38.2007 38.2007Z" fill="#12036E"/>
</svg>
