<svg width="90" height="90" viewBox="0 0 90 90" fill="none" xmlns="http://www.w3.org/2000/svg">
<circle cx="45" cy="45" r="44" fill="white" stroke="url(#paint0_linear_4248_43)" stroke-width="2"/>
<circle cx="45.6694" cy="45.2593" r="32.5" fill="url(#paint1_linear_4248_43)"/>
<mask id="mask0_4248_43" style="mask-type:alpha" maskUnits="userSpaceOnUse" x="11" y="14" width="69" height="69">
<rect x="11.6943" y="14.8721" width="68" height="68" fill="#D9D9D9"/>
</mask>
<g mask="url(#mask0_4248_43)">
<path d="M46.3608 73.9249L42.4458 70.4149C37.9008 66.3199 34.1433 62.7874 31.1733 59.8174C28.2033 56.8474 25.8408 54.1811 24.0858 51.8186C22.3308 49.4561 21.1046 47.2849 20.4071 45.3049C19.7096 43.3249 19.3608 41.2999 19.3608 39.2299C19.3608 34.9999 20.7783 31.4674 23.6133 28.6324C26.4483 25.7974 29.9808 24.3799 34.2108 24.3799C36.5508 24.3799 38.7783 24.8749 40.8933 25.8649C43.0083 26.8549 44.8308 28.2499 46.3608 30.0499C47.8908 28.2499 49.7133 26.8549 51.8283 25.8649C53.9433 24.8749 56.1708 24.3799 58.5108 24.3799C62.7408 24.3799 66.2733 25.7974 69.1083 28.6324C71.9433 31.4674 73.3608 34.9999 73.3608 39.2299C73.3608 41.2999 73.0121 43.3249 72.3146 45.3049C71.6171 47.2849 70.3908 49.4561 68.6358 51.8186C66.8808 54.1811 64.5183 56.8474 61.5483 59.8174C58.5783 62.7874 54.8208 66.3199 50.2758 70.4149L46.3608 73.9249ZM46.3608 66.6349C50.6808 62.7649 54.2358 59.4461 57.0258 56.6786C59.8158 53.9111 62.0208 51.5036 63.6408 49.4561C65.2608 47.4086 66.3858 45.5861 67.0158 43.9886C67.6458 42.3911 67.9608 40.8049 67.9608 39.2299C67.9608 36.5299 67.0608 34.2799 65.2608 32.4799C63.4608 30.6799 61.2108 29.7799 58.5108 29.7799C56.3958 29.7799 54.4383 30.3761 52.6383 31.5686C50.8383 32.7611 49.6008 34.2799 48.9258 36.1249H43.7958C43.1208 34.2799 41.8833 32.7611 40.0833 31.5686C38.2833 30.3761 36.3258 29.7799 34.2108 29.7799C31.5108 29.7799 29.2608 30.6799 27.4608 32.4799C25.6608 34.2799 24.7608 36.5299 24.7608 39.2299C24.7608 40.8049 25.0758 42.3911 25.7058 43.9886C26.3358 45.5861 27.4608 47.4086 29.0808 49.4561C30.7008 51.5036 32.9058 53.9111 35.6958 56.6786C38.4858 59.4461 42.0408 62.7649 46.3608 66.6349Z" fill="white"/>
</g>
<defs>
<linearGradient id="paint0_linear_4248_43" x1="4" y1="65.5" x2="84.5" y2="28" gradientUnits="userSpaceOnUse">
<stop stop-color="#DF97E9"/>
<stop offset="1" stop-color="#FF5070"/>
</linearGradient>
<linearGradient id="paint1_linear_4248_43" x1="16.5" y1="53.5" x2="74" y2="42" gradientUnits="userSpaceOnUse">
<stop stop-color="#DA99F8"/>
<stop offset="1" stop-color="#FF5170"/>
</linearGradient>
</defs>
</svg>
