<svg width="90" height="90" viewBox="0 0 90 90" fill="none" xmlns="http://www.w3.org/2000/svg">
<circle cx="45" cy="45" r="44" fill="white" stroke="#EC1313" stroke-width="2"/>
<circle cx="45.6694" cy="45.2593" r="32.5" fill="#EC1313"/>
<path d="M24.0377 24.0377C24.328 23.7467 24.6728 23.5158 25.0525 23.3583C25.4322 23.2007 25.8392 23.1196 26.2502 23.1196C26.6613 23.1196 27.0683 23.2007 27.4479 23.3583C27.8276 23.5158 28.1724 23.7467 28.4627 24.0377L45.0002 40.5815L61.5377 24.0377C61.8283 23.7472 62.1732 23.5167 62.5528 23.3594C62.9324 23.2022 63.3393 23.1213 63.7502 23.1213C64.1611 23.1213 64.568 23.2022 64.9476 23.3594C65.3272 23.5167 65.6722 23.7472 65.9627 24.0377C66.2533 24.3283 66.4837 24.6732 66.641 25.0528C66.7982 25.4324 66.8792 25.8393 66.8792 26.2502C66.8792 26.6611 66.7982 27.068 66.641 27.4476C66.4837 27.8272 66.2533 28.1722 65.9627 28.4627L49.419 45.0002L65.9627 61.5377C66.2533 61.8283 66.4837 62.1732 66.641 62.5528C66.7982 62.9324 66.8792 63.3393 66.8792 63.7502C66.8792 64.1611 66.7982 64.568 66.641 64.9476C66.4837 65.3272 66.2533 65.6722 65.9627 65.9627C65.6722 66.2533 65.3272 66.4837 64.9476 66.641C64.568 66.7982 64.1611 66.8792 63.7502 66.8792C63.3393 66.8792 62.9324 66.7982 62.5528 66.641C62.1732 66.4837 61.8283 66.2533 61.5377 65.9627L45.0002 49.419L28.4627 65.9627C28.1722 66.2533 27.8272 66.4837 27.4476 66.641C27.068 66.7982 26.6611 66.8792 26.2502 66.8792C25.8393 66.8792 25.4324 66.7982 25.0528 66.641C24.6732 66.4837 24.3283 66.2533 24.0377 65.9627C23.7472 65.6722 23.5167 65.3272 23.3594 64.9476C23.2022 64.568 23.1213 64.1611 23.1213 63.7502C23.1213 63.3393 23.2022 62.9324 23.3594 62.5528C23.5167 62.1732 23.7472 61.8283 24.0377 61.5377L40.5815 45.0002L24.0377 28.4627C23.7467 28.1724 23.5158 27.8276 23.3583 27.4479C23.2007 27.0683 23.1196 26.6613 23.1196 26.2502C23.1196 25.8392 23.2007 25.4322 23.3583 25.0525C23.5158 24.6728 23.7467 24.328 24.0377 24.0377Z" fill="white"/>
</svg>
