<svg width="90" height="90" viewBox="0 0 90 90" fill="none" xmlns="http://www.w3.org/2000/svg">
<circle cx="45" cy="45" r="44" fill="white" stroke="#8C3A60" stroke-width="2"/>
<circle cx="44.5" cy="45.5" r="32.5" fill="#8C3A60"/>
<mask id="mask0_4248_33" style="mask-type:alpha" maskUnits="userSpaceOnUse" x="13" y="15" width="69" height="63">
<rect x="13.0239" y="15.542" width="68" height="62.3853" fill="#D9D9D9"/>
</mask>
<g mask="url(#mask0_4248_33)">
<path d="M21.5239 67.529V28.5381C21.5239 27.1085 22.0788 25.8846 23.1885 24.8665C24.2982 23.8484 25.6323 23.3394 27.1906 23.3394H61.1906C62.7489 23.3394 64.083 23.8484 65.1927 24.8665C66.3024 25.8846 66.8573 27.1085 66.8573 28.5381V41.73C66.385 41.6434 65.9128 41.5892 65.4406 41.5676C64.9684 41.5459 64.4962 41.5351 64.0239 41.5351C63.5517 41.5351 63.0795 41.5459 62.6073 41.5676C62.135 41.5892 61.6628 41.6434 61.1906 41.73V28.5381H27.1906V54.532H47.2364C47.142 54.9652 47.083 55.3985 47.0593 55.8317C47.0357 56.2649 47.0239 56.6982 47.0239 57.1314C47.0239 57.5646 47.0357 57.9979 47.0593 58.4311C47.083 58.8643 47.142 59.2976 47.2364 59.7308H30.0239L21.5239 67.529ZM32.8573 38.9357H55.5239V33.7369H32.8573V38.9357ZM32.8573 49.3332H47.0239V44.1345H32.8573V49.3332ZM61.1906 67.529V59.7308H52.6906V54.532H61.1906V46.7339H66.8573V54.532H75.3573V59.7308H66.8573V67.529H61.1906Z" fill="white"/>
</g>
</svg>
