<svg width="50" height="50" viewBox="0 0 50 50" fill="none" xmlns="http://www.w3.org/2000/svg">
<ellipse cx="25.0071" cy="25" rx="24.993" ry="25" fill="white"/>
<path d="M24.993 0C31.6215 0 37.9786 2.63392 42.6657 7.32233C47.3528 12.0107 49.986 18.3696 49.986 25C49.986 31.6304 47.3528 37.9893 42.6657 42.6777C37.9786 47.3661 31.6215 50 24.993 50C18.3644 50 12.0074 47.3661 7.32028 42.6777C2.63318 37.9893 0 31.6304 0 25C0 18.3696 2.63318 12.0107 7.32028 7.32233C12.0074 2.63392 18.3644 0 24.993 0ZM14.0586 23.4375C13.6443 23.4375 13.247 23.6021 12.954 23.8951C12.6611 24.1882 12.4965 24.5856 12.4965 25C12.4965 25.4144 12.6611 25.8118 12.954 26.1049C13.247 26.3979 13.6443 26.5625 14.0586 26.5625H32.1566L25.4491 33.2687C25.3039 33.414 25.1887 33.5865 25.1101 33.7763C25.0315 33.9661 24.991 34.1695 24.991 34.375C24.991 34.5804 25.0315 34.7839 25.1101 34.9737C25.1887 35.1635 25.3039 35.336 25.4491 35.4812C25.5943 35.6265 25.7668 35.7418 25.9565 35.8204C26.1463 35.899 26.3497 35.9395 26.555 35.9395C26.7604 35.9395 26.9638 35.899 27.1536 35.8204C27.3433 35.7418 27.5157 35.6265 27.661 35.4812L37.0334 26.1062C37.1788 25.9611 37.2942 25.7887 37.373 25.5989C37.4517 25.409 37.4923 25.2055 37.4923 25C37.4923 24.7945 37.4517 24.591 37.373 24.4011C37.2942 24.2113 37.1788 24.0389 37.0334 23.8937L27.661 14.5188C27.5157 14.3735 27.3433 14.2582 27.1536 14.1796C26.9638 14.101 26.7604 14.0605 26.555 14.0605C26.3497 14.0605 26.1463 14.101 25.9565 14.1796C25.7668 14.2582 25.5943 14.3735 25.4491 14.5188C25.3039 14.664 25.1887 14.8365 25.1101 15.0263C25.0315 15.2161 24.991 15.4195 24.991 15.625C24.991 15.8304 25.0315 16.0339 25.1101 16.2237C25.1887 16.4135 25.3039 16.586 25.4491 16.7312L32.1566 23.4375H14.0586Z" fill="#12036E"/>
</svg>
