<svg width="40" height="40" viewBox="0 0 40 40" fill="none" xmlns="http://www.w3.org/2000/svg">
<circle cx="20" cy="20" r="20" fill="#12036E"/>
<g clip-path="url(#clip0_4234_87)">
<path d="M10 12.75C10 12.0207 10.2897 11.3212 10.8055 10.8055C11.3212 10.2897 12.0207 10 12.75 10H29.25C29.9793 10 30.6788 10.2897 31.1945 10.8055C31.7103 11.3212 32 12.0207 32 12.75V23.75C32 24.4793 31.7103 25.1788 31.1945 25.6945C30.6788 26.2103 29.9793 26.5 29.25 26.5H16.0693C15.7046 26.5001 15.3549 26.645 15.0971 26.9029L11.1743 30.8258C11.0782 30.9221 10.9557 30.9877 10.8223 31.0144C10.6889 31.0411 10.5506 31.0276 10.4249 30.9756C10.2992 30.9236 10.1917 30.8355 10.116 30.7225C10.0404 30.6094 10 30.4764 10 30.3404V12.75ZM14.8125 14.125C14.6302 14.125 14.4553 14.1974 14.3264 14.3264C14.1974 14.4553 14.125 14.6302 14.125 14.8125C14.125 14.9948 14.1974 15.1697 14.3264 15.2986C14.4553 15.4276 14.6302 15.5 14.8125 15.5H27.1875C27.3698 15.5 27.5447 15.4276 27.6736 15.2986C27.8026 15.1697 27.875 14.9948 27.875 14.8125C27.875 14.6302 27.8026 14.4553 27.6736 14.3264C27.5447 14.1974 27.3698 14.125 27.1875 14.125H14.8125ZM14.8125 17.5625C14.6302 17.5625 14.4553 17.6349 14.3264 17.7639C14.1974 17.8928 14.125 18.0677 14.125 18.25C14.125 18.4323 14.1974 18.6072 14.3264 18.7361C14.4553 18.8651 14.6302 18.9375 14.8125 18.9375H27.1875C27.3698 18.9375 27.5447 18.8651 27.6736 18.7361C27.8026 18.6072 27.875 18.4323 27.875 18.25C27.875 18.0677 27.8026 17.8928 27.6736 17.7639C27.5447 17.6349 27.3698 17.5625 27.1875 17.5625H14.8125ZM14.8125 21C14.6302 21 14.4553 21.0724 14.3264 21.2014C14.1974 21.3303 14.125 21.5052 14.125 21.6875C14.125 21.8698 14.1974 22.0447 14.3264 22.1736C14.4553 22.3026 14.6302 22.375 14.8125 22.375H21.6875C21.8698 22.375 22.0447 22.3026 22.1736 22.1736C22.3026 22.0447 22.375 21.8698 22.375 21.6875C22.375 21.5052 22.3026 21.3303 22.1736 21.2014C22.0447 21.0724 21.8698 21 21.6875 21H14.8125Z" fill="white"/>
</g>
<defs>
<clipPath id="clip0_4234_87">
<rect width="22" height="22" fill="white" transform="translate(10 10)"/>
</clipPath>
</defs>
</svg>
