<svg width="90" height="90" viewBox="0 0 90 90" fill="none" xmlns="http://www.w3.org/2000/svg">
<circle cx="45" cy="45" r="44" fill="white" stroke="#513CCF" stroke-width="2"/>
<circle cx="45.5" cy="44.5" r="32.5" fill="#513CCF"/>
<g clip-path="url(#clip0_4248_25)">
<path d="M59.416 34.8057C59.5151 38.5429 58.1256 42.1665 55.5531 44.8793C52.9805 47.592 49.4357 49.1718 45.6984 49.2709C41.9611 49.37 38.3376 47.9805 35.6248 45.408C32.9121 42.8354 31.3323 39.2906 31.2332 35.5533C31.1341 31.816 32.5236 28.1925 35.0961 25.4797C37.6687 22.7669 41.2135 21.1872 44.9508 21.0881C48.6881 20.9889 52.3116 22.3785 55.0244 24.951C57.7372 27.5236 59.3169 31.0684 59.416 34.8057Z" fill="white"/>
<path fill-rule="evenodd" clip-rule="evenodd" d="M7.99686 45.5707C7.73248 35.6047 11.4379 25.9418 18.298 18.7078C25.1582 11.4737 34.611 7.26118 44.5771 6.99679C54.5431 6.73241 64.206 10.4379 71.4401 17.298C78.6741 24.1581 82.8866 33.611 83.151 43.577C83.4154 53.5431 79.71 63.206 72.8498 70.44C65.9897 77.674 56.5369 81.8866 46.5708 82.1509C36.6047 82.4153 26.9418 78.7099 19.7078 71.8498C12.4738 64.9896 8.26124 55.5368 7.99686 45.5707ZM44.7017 11.6939C38.5098 11.8585 32.4903 13.7681 27.3359 17.203C22.1815 20.6379 18.1017 25.4584 15.5662 31.1097C13.0307 36.761 12.1424 43.0134 13.0037 49.1473C13.865 55.2812 16.4407 61.0472 20.4345 65.7817C23.627 60.3197 30.8158 54.3663 45.8232 53.9681C60.8305 53.57 68.3201 59.1294 71.8024 64.419C75.5396 59.4794 77.806 53.5849 78.3409 47.414C78.8757 41.2431 77.6572 35.0466 74.8256 29.5376C71.994 24.0287 67.6644 19.4313 62.3352 16.2745C57.0059 13.1178 50.8936 11.53 44.7017 11.6939Z" fill="white"/>
<path d="M67.04 60.3683C67.1537 59.9775 67.679 59.9636 67.8132 60.3478L68.6006 62.6031C68.7739 63.0989 69.0556 63.5461 69.4233 63.9092C69.791 64.2723 70.2347 64.5413 70.7192 64.695L72.9215 65.3946C73.2969 65.5139 73.3114 66.0611 72.9429 66.2001L70.7796 67.0155C70.3041 67.1949 69.8754 67.4874 69.5277 67.8697C69.1799 68.2519 68.9226 68.7136 68.7761 69.2179L68.1094 71.5106C68.0849 71.5962 68.0351 71.6714 67.967 71.7257C67.899 71.7799 67.8162 71.8103 67.7305 71.8126C67.6448 71.8149 67.5605 71.7889 67.4896 71.7383C67.4188 71.6878 67.3651 71.6153 67.3361 71.5311L66.5487 69.2758C66.3756 68.7802 66.0941 68.3331 65.7265 67.97C65.359 67.6069 64.9155 67.3377 64.4313 67.1839L62.2278 66.4844C62.1456 66.4587 62.0733 66.4066 62.0211 66.3356C61.9689 66.2646 61.9395 66.1783 61.9371 66.089C61.9347 65.9997 61.9595 65.912 62.0079 65.8383C62.0562 65.7646 62.1257 65.7088 62.2064 65.6788L64.3697 64.8635C64.8451 64.6842 65.2737 64.3919 65.6215 64.0098C65.9692 63.6277 66.2266 63.1664 66.3733 62.6622L67.04 60.3683ZM62.5268 54.4962C62.5416 54.4449 62.5716 54.3998 62.6124 54.3673C62.6533 54.3348 62.7029 54.3166 62.7544 54.3153C62.8058 54.3139 62.8563 54.3295 62.8989 54.3597C62.9414 54.39 62.9737 54.4334 62.9912 54.4838L63.4636 55.8368C63.6748 56.4399 64.145 56.9045 64.7343 57.0922L66.0562 57.5119C66.1054 57.5274 66.1488 57.5587 66.18 57.6014C66.2113 57.644 66.2289 57.6958 66.2303 57.7493C66.2317 57.8029 66.2169 57.8555 66.188 57.8998C66.159 57.944 66.1174 57.9776 66.069 57.9957L64.7713 58.4849C64.4858 58.5921 64.2284 58.7674 64.0197 58.9968C63.8109 59.2261 63.6566 59.5032 63.5689 59.8059L63.1689 61.182C63.1541 61.2333 63.1241 61.2783 63.0833 61.3108C63.0424 61.3433 62.9927 61.3615 62.9413 61.3629C62.8899 61.3642 62.8393 61.3487 62.7968 61.3184C62.7543 61.2881 62.722 61.2447 62.7045 61.1943L62.2321 59.8413C62.1285 59.5437 61.9597 59.2752 61.739 59.0573C61.5184 58.8393 61.2521 58.6779 60.9614 58.586L59.6395 58.1662C59.5903 58.1507 59.5469 58.1194 59.5157 58.0768C59.4844 58.0341 59.4668 57.9824 59.4654 57.9288C59.464 57.8752 59.4788 57.8226 59.5077 57.7784C59.5367 57.7341 59.5783 57.7006 59.6267 57.6824L60.9244 57.1932C61.2099 57.086 61.4673 56.9107 61.676 56.6814C61.8848 56.452 62.0391 56.175 62.1268 55.8722L62.5268 54.4962ZM70.4622 53.0529C70.4725 53.0192 70.4926 52.9897 70.5197 52.9684C70.5468 52.9472 70.5797 52.9353 70.6136 52.9343C70.6476 52.9334 70.681 52.9436 70.7092 52.9634C70.7374 52.9832 70.7591 53.0116 70.7711 53.0447L71.086 53.9459C71.2264 54.3488 71.5403 54.6589 71.9339 54.7836L72.8144 55.0634C72.8468 55.0742 72.8752 55.0952 72.8957 55.1235C72.9161 55.1518 72.9276 55.186 72.9286 55.2214C72.9295 55.2568 72.9198 55.2916 72.9009 55.3209C72.882 55.3503 72.8547 55.3728 72.8229 55.3852L71.9585 55.7113C71.7683 55.7833 71.5968 55.9005 71.4575 56.0534C71.3183 56.2064 71.2152 56.391 71.1562 56.5928L70.8895 57.5094C70.8793 57.5431 70.8592 57.5727 70.8321 57.5939C70.8049 57.6152 70.7721 57.6271 70.7381 57.628C70.7042 57.6289 70.6707 57.6187 70.6425 57.599C70.6143 57.5792 70.5927 57.5507 70.5807 57.5176L70.2657 56.6164C70.1962 56.4181 70.0834 56.2391 69.9363 56.0938C69.7891 55.9484 69.6116 55.8406 69.4178 55.7787L68.5385 55.4989C68.5061 55.4881 68.4777 55.4671 68.4572 55.4388C68.4367 55.4105 68.4252 55.3763 68.4243 55.3409C68.4234 55.3055 68.433 55.2707 68.452 55.2414C68.4709 55.212 68.4982 55.1895 68.5299 55.1771L69.3944 54.851C69.7808 54.7056 70.0778 54.3793 70.1967 53.9695L70.4622 53.0529Z" fill="#12036E"/>
<path d="M25.7055 61.465C25.8192 61.0742 26.3445 61.0603 26.4788 61.4445L27.2661 63.6998C27.4394 64.1956 27.7211 64.6427 28.0888 65.0058C28.4566 65.3689 28.9003 65.638 29.3847 65.7917L31.5871 66.4912C31.9625 66.6105 31.977 67.1578 31.6084 67.2968L29.4451 68.1121C28.9696 68.2916 28.541 68.5841 28.1932 68.9663C27.8454 69.3486 27.5881 69.8102 27.4416 70.3146L26.7749 72.6073C26.7504 72.6929 26.7006 72.7681 26.6326 72.8224C26.5645 72.8766 26.4817 72.907 26.396 72.9093C26.3103 72.9116 26.226 72.8856 26.1552 72.835C26.0844 72.7845 26.0306 72.712 26.0016 72.6278L25.2143 70.3725C25.0411 69.8768 24.7596 69.4298 24.3921 69.0667C24.0245 68.7036 23.5811 68.4344 23.0968 68.2806L20.8933 67.5811C20.8112 67.5554 20.7388 67.5033 20.6866 67.4323C20.6344 67.3613 20.605 67.275 20.6026 67.1857C20.6003 67.0964 20.625 67.0087 20.6734 66.935C20.7218 66.8613 20.7913 66.8055 20.872 66.7755L23.0353 65.9602C23.5107 65.7808 23.9392 65.4886 24.287 65.1065C24.6348 64.7244 24.8922 64.263 25.0388 63.7589L25.7055 61.465ZM21.1923 55.5928C21.2071 55.5415 21.2371 55.4965 21.278 55.464C21.3188 55.4315 21.3685 55.4133 21.4199 55.412C21.4713 55.4106 21.5219 55.4261 21.5644 55.4564C21.6069 55.4867 21.6392 55.5301 21.6567 55.5805L22.1291 56.9335C22.3403 57.5366 22.8106 58.0012 23.3999 58.1889L24.7217 58.6086C24.771 58.6241 24.8143 58.6554 24.8456 58.698C24.8768 58.7407 24.8944 58.7924 24.8958 58.846C24.8973 58.8996 24.8824 58.9522 24.8535 58.9964C24.8245 59.0407 24.7829 59.0742 24.7345 59.0924L23.4368 59.5816C23.1513 59.6888 22.8939 59.8641 22.6852 60.0934C22.4765 60.3228 22.3221 60.5998 22.2344 60.9026L21.8344 62.2787C21.8196 62.3299 21.7896 62.375 21.7488 62.4075C21.7079 62.44 21.6583 62.4582 21.6069 62.4595C21.5554 62.4609 21.5049 62.4453 21.4624 62.4151C21.4198 62.3848 21.3875 62.3414 21.37 62.291L20.8976 60.938C20.794 60.6404 20.6252 60.3719 20.4046 60.154C20.184 59.936 19.9177 59.7746 19.6269 59.6826L18.305 59.2629C18.2558 59.2474 18.2124 59.2161 18.1812 59.1734C18.1499 59.1308 18.1323 59.079 18.1309 59.0255C18.1295 58.9719 18.1443 58.9193 18.1733 58.875C18.2022 58.8308 18.2438 58.7973 18.2922 58.7791L19.5899 58.2899C19.8754 58.1827 20.1328 58.0074 20.3415 57.778C20.5503 57.5487 20.7046 57.2716 20.7923 56.9689L21.1923 55.5928ZM29.1278 54.1496C29.138 54.1159 29.1581 54.0863 29.1852 54.0651C29.2123 54.0438 29.2452 54.0319 29.2791 54.031C29.3131 54.0301 29.3465 54.0403 29.3748 54.0601C29.403 54.0798 29.4246 54.1083 29.4366 54.1414L29.7515 55.0426C29.8919 55.4455 30.2059 55.7556 30.5994 55.8803L31.4799 56.1601C31.5123 56.1709 31.5407 56.1919 31.5612 56.2202C31.5817 56.2485 31.5932 56.2827 31.5941 56.3181C31.595 56.3535 31.5854 56.3883 31.5664 56.4176C31.5475 56.447 31.5203 56.4694 31.4885 56.4819L30.6241 56.808C30.4338 56.88 30.2623 56.9971 30.1231 57.1501C29.9838 57.3031 29.8807 57.4877 29.8218 57.6895L29.5551 58.6061C29.5448 58.6398 29.5247 58.6694 29.4976 58.6906C29.4705 58.7119 29.4376 58.7238 29.4037 58.7247C29.3697 58.7256 29.3363 58.7154 29.3081 58.6956C29.2798 58.6758 29.2582 58.6474 29.2462 58.6143L28.9313 57.7131C28.8617 57.5147 28.7489 57.3358 28.6018 57.1905C28.4546 57.0451 28.2772 56.9372 28.0834 56.8754L27.204 56.5955C27.1716 56.5848 27.1432 56.5638 27.1227 56.5355C27.1023 56.5072 27.0908 56.473 27.0898 56.4376C27.0889 56.4022 27.0986 56.3674 27.1175 56.338C27.1364 56.3087 27.1637 56.2862 27.1955 56.2738L28.0599 55.9477C28.4463 55.8023 28.7433 55.4759 28.8622 55.0662L29.1278 54.1496Z" fill="#12036E"/>
</g>
<defs>
<clipPath id="clip0_4248_25">
<rect width="75.1806" height="75.1806" fill="white" transform="translate(7 7.99365) rotate(-1.51961)"/>
</clipPath>
</defs>
</svg>
